# xmcd
#
# Track frame offsets:
#	150
#	19078
#	42332
#	56929
#	69318
#	87086
#	105379
#	121887
#	137765
#	155327
#	176404
#	192025
#	203756
#	215111
#	229147
#	245728
#	262577
#	276361
#
# Disc length: 3876 seconds
#
# Revision: 1
# Processed by: cddbd v1.4PL0 Copyright (c) Steve Scherf et al.
# Submitted via: audiograbber 1.82.02
#
DISCID=fb0f2212
DTITLE=Various Artist - Rural Aid Appeal Vol 24
DYEAR=1900
DGENRE=
TTITLE0=Kasey Chambers - If I Were You
TTITLE1=The Flood - Queensland
TTITLE2=Sensitive New Age Cowpersons - The School of Country Music
TTITLE3=Colin Buchanan - Fishing Fraser Island
TTITLE4=Grant Luhrs - Murrumbidgee Rain
TTITLE5=Shane Flew - Lucy and Jemima
TTITLE6=Michael Bryers - Fall Like Rain
TTITLE7=Eric Stone - He Just Lied and Went To Heaven
TTITLE8=The Long Weekend - Love to You
TTITLE9=Shannon Lyon - You Showed Me How
TTITLE10=SweeneyKilleen - Fields of Gold
TTITLE11=Michael Fix - Feeding Frenzy
TTITLE12=The Fuelers - Hot Stompin' Betty
TTITLE13=Kristina Olsen - Hey I Want That Back
TTITLE14=Women in Docs - Fade Away
TTITLE15=Merri-May Gill - Get You Off My Mind
TTITLE16=The Flamin' Locos - Mountain Man
TTITLE17=Rockin' Rebels - Claudette
EXTD=
EXTT0=
EXTT1=
EXTT2=
EXTT3=
EXTT4=
EXTT5=
EXTT6=
EXTT7=
EXTT8=
EXTT9=
EXTT10=
EXTT11=
EXTT12=
EXTT13=
EXTT14=
EXTT15=
EXTT16=
EXTT17=
PLAYORDER=
